<svg width="67" height="75" viewBox="0 0 67 75" fill="none" xmlns="http://www.w3.org/2000/svg">
<path d="M14.9958 44.5246L12.3854 45.0709C12.4461 46.8618 14.2977 48.1821 16.7563 48.1821C19.1086 48.1821 20.7628 46.9832 20.7628 45.2682C20.7628 42.1115 15.1172 42.6579 15.1172 40.8671C15.1172 40.3055 15.7091 39.8958 16.4527 39.8958C17.333 39.8958 17.9704 40.4725 18.0311 41.2616L20.5807 40.6546C20.4593 39.0914 18.5926 37.9532 16.392 37.9532C14.1763 37.9532 12.7497 39.1066 12.7497 40.7153C12.7497 43.872 18.3346 43.3256 18.3346 45.2075C18.3346 45.8753 17.6213 46.1788 16.8777 46.1788C15.7394 46.1788 15.0565 45.4807 14.9958 44.5246ZM28.7701 48L28.7397 46.4824V40.4118H26.615V44.3576C26.615 45.3593 26.008 46.0878 25.1884 46.0878C24.4448 46.0878 23.9136 45.4807 23.9136 44.6005V40.4118H21.7889V45.0861C21.7889 46.8769 22.9272 48.1821 24.46 48.1821C25.4161 48.1821 26.2812 47.6661 26.6757 46.8921L27.1007 48H28.7701ZM35.082 43.872V48H37.2067V43.5078C37.2067 41.6107 36.1291 40.2296 34.566 40.2296C33.5643 40.2296 32.593 40.7912 32.2288 41.5955L31.7735 40.4118H30.1344V48H32.2591V44.1148C32.2591 43.0676 32.9117 42.2936 33.7768 42.2936C34.5508 42.2936 35.082 42.9462 35.082 43.872ZM43.5446 43.872V48H45.6693V43.5078C45.6693 41.6107 44.5918 40.2296 43.0286 40.2296C42.027 40.2296 41.0557 40.7912 40.6914 41.5955L40.2362 40.4118H38.5971V48H40.7218V44.1148C40.7218 43.0676 41.3744 42.2936 42.2394 42.2936C43.0134 42.2936 43.5446 42.9462 43.5446 43.872ZM46.1838 40.4118L49.1887 47.7572L48.9459 48.3035C48.6879 48.8651 48.0353 49.2748 47.3676 49.2748L48.3692 51.1567C49.4012 51.1112 50.2359 50.3675 50.7064 49.0927L53.8934 40.4118H51.5563L50.16 45.2682L48.5513 40.4118H46.1838ZM17.3529 61H21.2988C24.0306 61 26.0339 58.9208 26.0339 56.0676C26.0339 53.1841 23.9851 51.1353 21.1167 51.1353H17.3529V61ZM19.5991 58.936V53.1689H21.056C22.5736 53.1689 23.6664 54.3679 23.6664 56.0525C23.6664 57.7219 22.6192 58.936 21.1774 58.936H19.5991ZM31.3509 57.4184V57.5398C31.3509 58.5718 30.6527 59.2092 29.8636 59.2092C29.3172 59.2092 29.0137 58.9208 29.0137 58.5111C29.0137 58.1468 29.2565 57.8736 29.6815 57.7826L30.8349 57.5398C31.1232 57.4791 31.3509 57.4487 31.3509 57.4184ZM26.7676 58.936C26.7676 60.2412 27.8147 61.1821 29.2565 61.1821C30.2126 61.1821 31.017 60.7724 31.5026 60.1198L31.8365 61H33.5059L33.4756 59.4824V56.0828C33.4756 54.4286 32.0945 53.2296 30.1975 53.2296C28.7253 53.2296 27.4202 54.1402 27.0711 55.4151L29.1351 56.1435C29.1958 55.582 29.6815 55.1722 30.2885 55.1722C30.9107 55.1722 31.3509 55.5516 31.3509 56.0828C31.3509 56.2042 31.2598 56.3256 31.0777 56.356L28.5887 56.872C27.5264 57.0996 26.7676 57.9647 26.7676 58.936ZM33.9937 53.4118L36.9986 60.7572L36.7558 61.3035C36.4978 61.8651 35.8452 62.2748 35.1775 62.2748L36.1791 64.1567C37.2111 64.1112 38.0458 63.3675 38.5163 62.0927L41.7034 53.4118H39.3662L37.9699 58.2682L36.3612 53.4118H33.9937ZM44.5812 58.2379L42.0922 58.7539C42.2137 60.2715 43.7313 61.2125 45.6739 61.2125C47.6165 61.2125 49.0127 60.2108 49.0127 58.8146C49.0127 56.3256 44.6419 56.872 44.6419 55.5365C44.6419 55.2026 44.9302 54.9598 45.4614 54.9598C46.1292 54.9598 46.5238 55.2936 46.5238 55.9007L48.8913 55.4151C48.8306 54.1251 47.4495 53.1993 45.5221 53.1993C43.7161 53.1993 42.5172 54.0492 42.5172 55.3544C42.5172 57.8433 46.7666 57.3576 46.7666 58.6932C46.7666 59.1029 46.3872 59.3913 45.856 59.3913C45.1579 59.3913 44.6115 58.9056 44.5812 58.2379Z" fill="black"/>
<path d="M33 13V20" stroke="black" stroke-width="2"/>
<path d="M33 30L33 37" stroke="black" stroke-width="2"/>
<path d="M45 25L38 25" stroke="black" stroke-width="2"/>
<path d="M28 25H21" stroke="black" stroke-width="2"/>
<path d="M41.4853 16.5147L36.4853 21.5147" stroke="black" stroke-width="2"/>
<path d="M29.5147 28.4853L24.5147 33.4853" stroke="black" stroke-width="2"/>
<path d="M41.4853 33.4853L36.4853 28.4853" stroke="black" stroke-width="2"/>
<path d="M29.5147 21.5147L24.5147 16.5147" stroke="black" stroke-width="2"/>
</svg>
